<svg width="75" height="75" viewBox="0 0 75 75" fill="none" xmlns="http://www.w3.org/2000/svg">
<path d="M75 7.5V67.5C75 71.6375 71.6375 75 67.5 75H7.5C3.3625 75 0 71.6375 0 67.5V7.5C0 3.3625 3.3625 0 7.5 0H67.5C71.65 0 75 3.3625 75 7.5Z" fill="#14213D"/>
<path d="M19.6375 16.9C17.7625 16.9 16.25 18.425 16.25 20.2875V75H23.025V20.2875C23.025 18.4125 21.5125 16.9 19.6375 16.9Z" fill="#FCA311"/>
<path d="M52.8756 0V43.6L35.2381 18.3625C34.6006 17.425 33.5381 16.9 32.4881 16.9C30.4381 16.9 29.0381 18.5375 29.0381 20.2875V54.4C29.0381 56.275 30.5631 57.7875 32.4256 57.7875C34.3006 57.7875 35.8756 56.2625 35.8756 54.4V31.1L53.5256 56.3375C54.1631 57.275 55.2131 57.8 56.3256 57.8C58.2006 57.8 59.7131 56.225 59.7131 54.4125V0H52.8756Z" fill="#FCA311"/>
</svg>
